<?xml version="1.0" encoding="UTF-8"?>
<svg xmlns="http://www.w3.org/2000/svg" viewBox="0 0 1108 1083" width="1108" height="1083">
  <path d="M0.25 0.25C369.42 0.25 738.58 0.25 1107.75 0.25C1107.75 361.08 1107.75 721.92 1107.75 1082.75C738.58 1082.75 369.42 1082.75 0.25 1082.75C0.25 721.92 0.25 361.08 0.25 0.25ZM536.5 84.91C537.23 90.26 542.75 98.86 544.76 104.69C550.43 121.21 550.25 139.05 543.8 155.32C535.47 176.32 517.43 191.77 502.04 207.56C475.83 234.45 449.3 267.12 448.08 306.5C447.83 314.35 447.44 322.63 448.32 330.45C450.24 347.57 457.23 365.13 465.13 380.36C470.68 391.09 478.51 400.43 484.83 410.69C492.3 422.81 497.4 436.49 499.88 450.51C503.36 470.23 502.59 502.66 478.37 508.77C466.34 511.81 447.49 508.63 446.06 493.5C445.01 482.52 449.43 472.55 452.8 462.4C455.16 455.31 456.94 447.9 457.94 440.5C463.78 396.98 447.2 348.54 415.56 317.94C407.24 309.89 397.35 303.27 386.65 298.82C382.24 296.99 377.36 294.85 372.68 295.5C380.93 311.49 388.89 326.5 391.73 344.56C397.44 380.86 385.49 402.73 365.67 431.2C362.05 436.39 359.61 442.83 355.5 447.58C345.44 428.06 333.8 409.8 315.54 396.97C310.19 393.21 303.54 388.01 297.17 386.5C299.5 395.41 304.26 403.73 306.69 412.71C311.15 429.19 312.17 446.58 309.85 463.49C304.84 500.07 282.09 533.99 264.25 565.73C245.2 599.62 230.04 636.93 224.09 675.5C220.5 698.78 219.33 723.03 222.27 746.47C231.74 822.11 275.28 895.91 339.07 938.44C379.41 965.34 425.17 980.19 472.45 989.24C489.1 992.43 505.78 995.19 522.44 998.27C531.06 999.87 540.62 1002.81 549.44 1001.66C559.77 1000.32 560.83 990.13 552.42 985.03C546.4 981.37 539.27 979.33 532.78 976.68C521.49 972.06 510.59 966.55 500 960.5C459.91 937.59 417.83 895.13 419.63 845.5C420.25 828.43 425.8 811.98 435.07 797.63C451.33 772.46 474.99 751.05 473.64 718.5C473.1 705.44 468.88 693.21 460.04 683.46C454.62 677.48 447.88 673 442.65 666.83C424.49 645.39 413.31 621.45 421.4 592.81C431.46 557.2 467.19 554.86 491.42 533.94C510.83 517.19 521.93 488.81 520.78 463.5C520.27 452.37 516.79 442.32 514.99 431.5C520.69 432.92 530.23 440.43 535.71 443.78C545.26 449.62 555.29 456.29 562.51 465C578.95 484.83 565.41 507.64 558.34 527.78C554.64 538.33 553.27 549.42 555.15 560.47C559.76 587.54 574.59 597.33 593.1 614.41C597.48 618.46 601.27 623.08 605.5 627.27C606.55 620.74 605.93 614.11 607.21 607.55C609.55 595.46 616.02 582.93 624.77 574.27C638.96 560.23 658.66 553.28 676.29 544.77C698.77 533.91 719.87 517.8 729.47 493.97C736.76 475.87 736.19 456.36 731.71 437.67C727.5 420.08 720.81 403.76 725.91 385.46C727.33 380.36 729.18 375.07 732.5 370.89C733.7 377.48 734.9 383.85 737.44 390.1C747.52 414.9 765.89 433.1 766.21 461.5C766.39 477.62 762.6 492.75 755.74 507.26C749.45 520.59 739.9 533.01 740.9 548.5C741.91 564.02 757.07 573.8 771.5 574.02C802.77 574.5 824.54 544.85 828.91 516.5C832.76 491.54 824.09 468.68 820.19 444.47C815.93 418.04 818.12 392.17 832.5 369.04C833.5 374.72 832.68 380.72 833.14 386.5C834.03 397.55 836.4 408.7 840.48 419.03C851.25 446.29 871.33 469.91 871.4 500.5C871.47 531.91 851.74 548.6 843.3 575.74C840.09 586.06 842.26 595.38 842.5 605.79C834.5 604.83 826.5 603.88 818.5 602.92C817.5 607.55 816.5 612.17 815.5 616.79C807.1 612.68 799.68 605.79 794.44 598.07C792.41 595.07 790.87 591.65 788.5 588.95C774.24 603.14 762.94 623.91 770.17 644.37C772.96 652.29 778.39 657.8 783.09 664.5C779.03 669.86 768.6 676.48 763.05 681.54C751.5 692.06 741.66 703.33 732.46 715.94C727.62 722.57 719.52 731.54 720.37 740.35C721.06 747.43 727.33 750.92 733.24 753.3C744.85 757.97 756.49 762.48 766.91 769.58C796.75 789.89 805.69 828.99 795.71 862.3C784.32 900.26 751.35 929.41 720.35 951.9C709.28 959.94 697.6 967.13 686.34 974.89C681.17 978.45 674.64 982 673.19 988.5C676.33 995.4 685.35 993.92 691.5 992.92C708.93 990.09 726.39 986.27 743.55 982.18C816.61 964.73 880.11 927.26 923.4 864.87C950.26 826.16 970.46 770.93 966.72 723.5C965.23 704.5 960.8 686.8 954.6 668.83C947.31 647.69 937.81 627.44 938.43 604.54C938.95 585.44 946.07 569.04 954.99 552.5C957.02 548.73 959.66 545.18 961.5 541.36C952.51 542.89 943.29 548.45 935.44 552.97C916.24 564.02 898.52 577.38 887.57 597.08C884.49 602.63 882.08 608.59 880.22 614.65C878.99 618.64 878.32 622.89 876.5 626.65C873.91 623.66 863.18 615.07 862.28 613.26C860.89 610.5 861.03 606.52 860.71 603.53C859.65 593.84 859.97 584.37 863.78 575.29C867.22 567.1 872.14 559.63 876.38 551.85C883.81 538.21 889.71 523.11 890.93 507.5C892.23 490.83 888.64 473.92 881.77 458.72C872.58 438.39 859.12 420.46 854.31 398.3C849.55 376.42 853.1 354 862.19 333.69C865.63 326.02 870.17 318.98 873.95 311.5C870.29 311.5 866.62 314.06 863.35 315.84C853.72 321.08 844.44 327.47 836.38 334.9C808.31 360.8 795.75 397.75 799.2 435.5C801.24 457.91 810.14 478.85 810.56 501.54C810.88 519.47 803.98 539.73 788.23 549.71C781.75 553.82 773.18 556.63 765.66 553.79C757.54 550.71 759.56 541.1 762.32 534.78C767.29 523.39 774.36 512.96 778.8 501.34C783.16 489.94 785.14 477.67 785.42 465.5C785.8 448.88 781.42 432.39 773.87 417.64C765.43 401.16 753.09 386.57 751.32 367.46C749.08 343.18 767.44 326.66 776.55 306.08C789.57 276.66 775.81 238.17 747.46 222.5C747.07 228.07 748.92 233.8 749.06 239.5C749.38 252.8 746.84 266.82 739.85 278.33C729.77 294.93 713.03 304.18 697.62 315.04C681.87 326.15 668.28 338.9 660.22 356.7C653.61 371.31 651.85 387.59 655.35 403.27C659.1 420.06 668.08 435.18 669.8 452.5C670.57 460.19 669.52 467.83 667.68 475.28C666.36 480.58 663.14 486.66 663.5 492.02C677.34 480.02 686.26 463.13 684.77 444.5C682.53 416.61 665.67 397.26 676.19 367.66C685.46 341.57 711.57 330.35 731.88 314.4C739.26 308.61 746.6 302.16 751.94 294.38C756.19 288.17 758.83 281.2 762.5 274.7C765.4 287.04 759.92 299.7 753.61 310.12C740.19 332.28 719.8 346.41 709.41 371.86C703.69 385.86 703.32 401.73 706.2 416.45C710.58 438.86 720.46 460.24 712.75 483.31C701.51 516.95 665.95 527.27 637.64 542.14C626.23 548.14 617.04 555.77 607.5 564.28C606.87 559.77 608.94 555.48 610.7 551.24C614.4 542.28 619.43 534.3 624.95 526.38C636.1 510.39 643.71 494.46 643.62 474.5C643.55 458.63 638.31 443.73 630.36 430.15C615.58 404.89 594.96 383.55 603.26 351.68C608.04 333.32 620.1 317.94 633.07 304.57C642.77 294.57 653.09 284.53 659.48 271.98C663.83 263.43 671.43 244.56 667.5 235.46C655.71 257.57 636 274.42 614.92 287.41C595.66 299.29 572.96 310.02 558.26 327.74C544.41 344.44 533.82 363.54 547.21 384.29C549.51 387.84 552.21 391.06 555.5 393.73C555.89 387.7 554.52 381.68 555.3 375.55C557.38 359.07 566.88 344.46 578.97 333.48C583.07 329.76 589.65 322.74 595.17 322.5C591.59 330.16 587.55 337.41 585.17 345.6C579.37 365.61 582.8 385.29 591.69 403.78C602.3 425.83 623.28 444.76 624.2 470.5C625.27 500.26 609.04 512.08 596.2 535.69C588.06 550.67 587.24 562.88 585.5 579.37C574.18 570.93 571.51 552.28 574.95 539.5C582.31 512.12 598 493.57 583.84 463.64C575.26 445.5 557.57 435.42 541.17 425.36C524.97 415.42 508.88 404.61 496.08 390.4C487.77 381.17 480.82 369.93 475.93 358.53C471.84 349.01 469.03 338.8 467.95 328.5C466.67 316.21 466.66 303.77 469.28 291.63C477.99 251.26 516.96 220.98 543.5 191.79C543.78 196.87 539.31 202.72 536.6 207.13C529.79 218.22 522.1 228.8 515.54 240.04C507.04 254.6 501.09 270.43 501.27 287.5C501.52 310.16 517.57 335.86 535.5 349.35C535.17 343.97 529.21 332.35 527.2 326.35C522.32 311.76 518.67 295.97 520.17 280.5C523.17 249.48 550.31 224.92 562.57 197.1C568.37 183.94 571.26 169.88 571.47 155.5C571.57 148.38 569.15 140.42 570.5 133.63C594.07 159.27 601.3 196.58 589.9 229.45C585.74 241.45 578.73 252.16 574.69 264.27C573.16 268.88 571.07 274.15 571.5 278.96C582.38 274.82 592.14 267.71 601.58 261.03C608.12 256.4 615.75 252.64 621.49 247C633.03 235.65 636.12 217.8 633.27 202.42C632.29 197.14 631.37 191.31 628.5 186.71C626.07 202.93 623.77 218.67 610.5 229.92C610.23 225.54 612.2 220.91 612.8 216.47C614.11 206.71 614.91 196.34 613.83 186.5C609.76 149.44 587.39 115.22 556.09 95.42C549.85 91.48 543.48 87.39 536.5 84.91ZM638.5 126.3C638.59 131.57 642.25 137.48 643.86 142.58C648.36 156.81 650.34 171.6 649.93 186.5C649.77 192.11 649.71 199.77 646.5 204.38C644.5 201.33 642.5 198.28 640.5 195.23C640.66 200.65 643.47 206.27 644.82 211.56C646.72 218.99 646.85 226.68 648.5 234.06C660.37 227.35 667.17 207.19 668.81 194.48C669.34 190.37 668.96 186.2 669.5 182.11C675.27 187.33 679.24 194.95 682.61 201.87C692.13 221.51 695.34 243.03 689.73 264.3C687.33 273.41 683.95 282.39 680.64 291.21C679.13 295.22 676.33 299.72 676.5 303.91C706.57 287.24 715.59 254.52 709.28 222.43C701.69 183.92 671.69 146.65 638.5 126.3ZM412.5 343.71C419.71 349.95 424.59 360.61 428.24 369.26C437.74 391.77 442.69 415.99 438.73 440.42C434.51 466.42 415.68 490.58 436.24 515.26C439.03 518.61 442.55 521.12 446.45 523.05C451.97 525.78 458.09 527.25 464.08 528.5C459.44 532.71 452.2 535.14 446.6 538.1C438.58 542.33 430.75 547.41 423.99 553.48C401.53 573.64 395.27 604.63 402.25 633.36C404.91 644.3 410.76 653.37 415.21 663.5C410.03 664 404.42 662.68 399.45 661.12C374.69 653.35 363.38 628.76 362.39 604.48C361.46 581.63 369.36 558.51 380.1 538.63C386.1 527.51 394.18 517.11 398.75 505.29C405.11 488.83 404.33 468.62 401.5 451.5C399.55 459.16 397.82 466.99 394.83 474.34C387.41 492.58 375.65 508.89 364.5 524.99C362.88 518.54 364.87 511.18 364.99 504.5C365.26 490.01 365 475.49 370.29 461.76C374.78 450.11 382.83 440.47 389.89 430.34C394.86 423.2 399.18 415.17 402.68 407.21C408.36 394.25 412.01 380.67 412.73 366.5C413.11 358.92 411.6 351.22 412.5 343.71ZM330.5 441.65C338.64 450.68 342.09 464.82 344.2 476.46C349.55 505.95 342.58 534.66 327.91 560.37C315.08 582.84 296.97 604.38 295.94 631.5C294.85 660.12 306.67 675.17 330.15 689.36C338.06 694.14 351.19 698.41 356.72 705.76C362.25 713.12 355.49 720.31 349.5 724.87C343.1 720.05 337.54 714.17 330.95 709.52C318.58 700.79 298.1 690.49 282.71 695.3C273.42 698.21 270.7 708.25 271.51 717C272.8 731.07 280.29 752.08 293.5 759.29C296.98 755.25 296.23 749.4 295.34 744.34C293.65 734.66 288.62 722.94 291.5 713.2C306.92 712.9 328.02 726.99 336.61 739.5C332.31 745.98 327.23 753.76 321.31 758.85C315.79 763.59 308.79 765.41 302.7 769.2C293.31 775.05 286.47 785.14 286.96 796.5C287.1 799.83 287.84 803.27 289.15 806.34C290.76 810.11 293.27 813.45 296.26 816.23C300.01 819.73 304.52 822.35 309.25 824.3C316.61 827.32 323.94 827.02 331.5 828.5C326.66 852.06 328.88 875.08 338.34 897.21C342.32 906.53 348.2 914.68 353.03 923.5C347.09 922.26 340.71 916.31 335.94 912.53C323.69 902.81 312.62 891.96 302.41 880.11C253.61 823.42 227.29 744.39 244.5 670.31C248.67 684.21 248.26 702.55 259.39 713.5C259.67 707.82 257.5 700.52 257.17 694.5C255.86 670.08 253.79 644.5 260.2 620.6C264.37 605.03 272.12 590.41 279.83 576.34C292.57 553.09 307.2 530.67 317.83 506.33C323.48 493.39 326.97 479.43 328.8 465.48C329.83 457.66 328.75 449.23 330.5 441.65ZM346.5 567.73C346.8 576.56 343.35 586.35 342.95 595.5C341.78 622.42 349.38 649.98 371.12 667.42C380.62 675.04 392.53 680.68 404.56 682.78C411.81 684.04 419.29 683.55 426.46 685.13C439.6 688.04 450.61 697.43 453.61 710.78C457.79 729.44 448.94 745.37 438.54 760.06C426.18 777.53 411.72 793.87 405.27 814.68C389.42 865.87 414.85 916.68 453.05 950.47C461.79 958.2 471.35 965.06 481.13 971.4C486.44 974.84 492.67 977.58 497.5 981.59C480.78 981.1 459.67 973.81 444.27 967.24C401.29 948.89 358.14 917.44 349.31 868.35C346.78 854.27 348.53 840.33 352.22 826.63C354.36 818.72 361.09 807.49 357.22 799.33C355.62 795.95 352.12 794.6 348.72 796.22C344.44 798.26 342.38 803.36 338.2 805.68C329.36 810.56 304.69 808.73 305.87 794.5C306.68 784.86 323.03 781.45 329.84 776.38C336.21 771.63 340.07 764.6 345.04 758.58C350.01 752.56 356.18 747.69 361.65 742.15C365.39 738.36 368.58 733.89 372.5 730.33C376.71 735.11 379.1 741.29 383.66 745.84C391.31 753.48 406.57 757.1 415.77 750.5C414.27 733.14 401.73 738 393.11 728.35C384.73 718.96 380.31 706.12 370.41 698.06C358.72 688.54 343.12 685.53 331.65 675.9C308.84 656.73 312.36 625.35 325.28 601.76C331.57 590.27 338.24 577.91 346.5 567.73ZM487.5 581.42C478.05 596.17 476.76 618.89 485.25 634.28C489.65 642.26 500.91 654.37 499.5 663.82C497.83 660.75 496.17 657.68 494.5 654.61C492.95 664.21 499.18 674.26 504.92 681.63C518.64 699.27 539.82 712.31 552.59 730.5C548.89 737.2 541.89 742.65 536.49 748C521.24 763.12 502.91 776.24 493.84 796.36C487.84 809.67 485.85 827.29 496.73 838.77C508.05 850.7 525.82 848.52 539.15 841.64C559.12 831.31 575.26 814.12 589.96 797.45C594.2 792.64 597.99 787.37 602.5 782.82C608.46 787.13 613.2 794.76 618.15 800.32C631.14 814.91 654.47 837.72 672.41 845.14C684.45 850.11 699.72 849.44 709.33 839.83C719.99 829.18 718.67 810.16 713.07 797.45C700.67 769.31 671.86 754.07 653.43 730.5C655.93 725.3 661.39 721 665.44 716.94C673.76 708.59 682.24 700.42 690.86 692.38C703.18 680.89 712.19 667.23 722.68 654.2C725.59 650.58 729.66 647.89 732.5 644.4C724.61 644.7 717.51 647.42 710.5 650.88C710.07 645.12 712.7 637.17 715.61 632.1C717.78 628.31 720.81 625.01 722.42 620.91C724.79 614.89 724.84 607.52 723.31 601.3C722.65 598.65 722.04 596.29 720.5 594.05C716.86 599.83 714.29 605.91 708.99 610.5C701.5 616.96 692.17 618.59 682.8 620.41C678.34 621.27 673.74 623.18 669.27 623.5C671.08 619.68 673.24 616.57 676.98 614.5C666.06 611.17 655.78 619.88 648.6 627.09C637.26 638.47 626.49 650.37 616.07 662.59C611.61 667.81 607.67 674.2 602.5 678.71C590.52 663.96 578.51 648.92 564.92 635.57C556.15 626.97 545.3 620.57 537.53 610.94C532.77 605.04 529.8 598.26 526.52 591.5C522.69 601.24 525.76 613.18 531.4 621.5C526.67 622.02 521.94 620.46 517.31 619.26C512.34 617.97 507.05 616.64 502.64 613.9C491.38 606.91 489.77 593.29 487.5 581.42ZM918.5 588.68C919.93 593.88 918.77 599.98 918.73 605.5C918.67 614.24 919.29 622.91 921.2 631.45C927.84 661.03 943.73 685.97 946.9 717.5C952.69 775.13 925.34 836.62 887.54 879.06C876.15 891.85 858.94 909.54 843.5 916.94C844.88 912.88 848.43 909 850.85 905.33C855.53 898.21 860.01 890.97 863.86 883.35C879.89 851.61 886.02 820.62 878.52 785.5C884.04 783.44 889.47 782.49 894.31 778.85C908.07 768.49 909.13 749.12 904.59 733.84C902.33 726.23 897.75 719.07 895.95 711.5C903.74 708.74 911.32 708.88 919.5 708.99C922.95 709.04 927.79 709.77 929.96 706.4C932.67 702.18 928.26 695.96 926.11 692.36C921.63 684.87 916.05 677.74 909.35 672.11C905.9 669.2 897.56 664.36 895.29 661.22C891.73 656.28 892.67 643.89 893.57 638.19C896.51 619.83 904.18 601.09 918.5 588.68ZM789.5 622.82C793.91 625.33 797.82 628.7 802.15 631.38C810.62 636.63 820.1 640.54 829.5 643.79C831.17 637.45 832.83 631.12 834.5 624.78C847.99 622.48 862.36 634.77 865.01 647.5C861.8 647.61 858.72 646.56 855.5 646.09C850.53 645.36 845.52 644.95 840.5 645.05C826.22 645.35 813.72 649.95 800.5 654.75C791.27 647.98 783.35 634.05 789.5 622.82ZM511.5 637.9C516.6 639.96 521.76 642.55 527.25 643.4C534.31 644.5 538.69 643.25 545.29 647.23C553.15 651.96 559.51 659.13 565.68 665.81C578.35 679.53 589.89 694.24 602.5 707.97C607.74 704.94 613.27 695.82 617.48 690.97C626.3 680.79 635.23 670.79 644.66 661.16C649.27 656.46 653.74 651.42 659.19 647.66C665.1 643.57 671.48 641.31 678.46 639.86C682.88 638.94 687.51 637.72 691.94 638.5C687.17 650.23 686.54 663.89 678.95 674.39C673.98 681.25 667.48 687.04 661.55 693.05C654.26 700.43 647.08 707.9 639.93 715.43C635.46 720.15 630.07 724.9 626.79 730.5C637.68 744.27 650.93 756.78 663.61 768.9C672.32 777.21 681.27 785.32 688.5 795.01C693.65 801.91 701.94 818.47 694.69 826.21C692.46 828.58 688.55 828.22 685.64 827.7C678.47 826.44 671.63 821.8 665.85 817.61C649.62 805.86 636.31 791.32 623.1 776.38C617.37 769.91 609.85 758.75 602.5 754.69C581.51 775.43 564.45 799.35 540.27 816.77C534.42 820.99 527.78 825.7 520.48 826.88C517.8 827.32 513.99 827.79 511.93 825.59C505.11 818.34 513.55 801.36 518.3 794.77C524.91 785.6 533.59 778 541.64 770.14C549.91 762.07 557.94 753.76 565.9 745.39C570.4 740.67 575.43 735.87 579.12 730.5C575.58 725.09 570.4 720.26 565.92 715.58C558.09 707.41 550.11 699.39 542.05 691.45C536.18 685.66 529.92 680.05 525.49 673.02C522.52 668.32 520.56 663.06 518.56 657.9C516.54 652.68 510.99 642.88 511.5 637.9ZM898.56 690.5C891.18 691.85 884.2 694.37 877.77 698.3C872.5 701.53 867.75 705.5 863.87 710.32C852.33 724.65 848.28 743.47 851.11 761.49C852.97 773.28 858.17 784.17 860.58 795.81C862.68 805.97 862.91 816.21 861.9 826.5C860.12 844.7 852.9 862.76 844.11 878.63C824.99 913.16 795.02 944.83 760.09 963.58C749.76 969.13 738.78 973.53 727.67 977.22C722.69 978.86 717.12 981.27 711.9 981.5C724.59 971.42 738.36 962.77 750.88 952.42C785.84 923.53 817.27 885.71 819.3 838.5C819.77 827.52 818.17 816.84 815.28 806.29C811.95 794.12 805.64 782.58 797.92 772.62C788.85 760.91 776.59 751.68 763.4 745.09C756.73 741.75 748.71 739.64 742.61 735.5C747.71 726.07 754.81 717.37 761.92 709.4C777.62 691.8 803.03 671.27 826.55 666.16C835.9 664.13 846.14 664.2 855.53 665.82C867.14 667.83 879.21 672.75 888.73 679.77C892.31 682.41 897.31 686.28 898.56 690.5ZM839.61 683.24C824.26 686.09 832.1 710.11 847.29 702.8C857.85 697.72 851.97 680.95 839.61 683.24ZM879.5 723.14C885.55 730.84 892.08 753.86 884.16 761.66C881.37 764.41 877.2 764.85 873.5 765C866.56 753.89 870.27 732.25 879.5 723.14ZM610.5 825.28C590.59 839.81 582.13 866.57 596.06 888.39C610.34 910.77 639.09 921.77 643.17 950.5C643.78 954.76 644.04 958.8 643.52 963.1C642.92 968.07 641.95 972.82 639.87 977.4C637.21 983.27 633.47 988.86 628.98 993.48C623.77 998.85 617.16 1004.31 610.38 1007.5C609.82 1003.52 610.08 999.52 609.77 995.5C609.35 989.83 608.15 984.18 606.73 978.69C600.85 955.86 586.11 935.08 566.86 921.6C544.27 905.79 512.85 899.5 493.69 879.8C485.12 871 479.33 860.19 476.29 848.31C474.95 843.05 474.38 832.53 472.5 828.8C469.27 835.72 467.51 842.54 466.53 850.08C465.77 855.86 466.53 861.92 467.77 867.59C479.37 920.32 546.54 916.79 574.92 955.64C587.57 972.96 593.05 994.29 588.77 1015.43C587.54 1021.48 585.7 1027.43 583.69 1033.26C582.47 1036.81 580.33 1040.38 580.5 1044.02C586.34 1041.81 592 1038.84 597.68 1036.2C623.75 1024.1 649.58 1007.59 659.72 979.27C663.5 968.71 662.15 958.42 663.26 947.52C664.29 937.43 668.68 927.48 675.11 919.65C693.87 896.8 725.52 895.69 734.28 862.71C735.7 857.39 736.36 852.02 735.98 846.5C735.57 840.62 734.2 834.43 731.5 829.18C729.42 839.77 728.25 849.49 722.45 858.94C711.93 876.08 687.58 883.69 671.7 896.17C667.16 899.74 662.7 904.14 659.1 908.66C656.46 911.97 654.6 916.34 651.5 919.03C647.4 914.12 643.47 909.09 638.83 904.66C625.04 891.45 607.71 879.94 605.22 859.47C604.31 851.94 605.21 843.84 607.21 836.57C608.22 832.88 610.35 829.03 610.5 825.28Z" fill="none" fill-rule="evenodd" stroke="#2C2B2B" stroke-width="0.25" stroke-linejoin="round"/>
  <path d="M536.5 84.91C543.48 87.39 549.85 91.48 556.09 95.42C587.39 115.22 609.76 149.44 613.83 186.5C614.91 196.34 614.11 206.71 612.8 216.47C612.2 220.91 610.23 225.54 610.5 229.92C623.77 218.67 626.07 202.93 628.5 186.71C631.37 191.31 632.29 197.14 633.27 202.42C636.12 217.8 633.03 235.65 621.49 247C615.75 252.64 608.12 256.4 601.58 261.03C592.14 267.71 582.38 274.82 571.5 278.96C571.07 274.15 573.16 268.88 574.69 264.27C578.73 252.16 585.74 241.45 589.9 229.45C601.3 196.58 594.07 159.27 570.5 133.63C569.15 140.42 571.57 148.38 571.47 155.5C571.26 169.88 568.37 183.94 562.57 197.1C550.31 224.92 523.17 249.48 520.17 280.5C518.67 295.97 522.32 311.76 527.2 326.35C529.21 332.35 535.17 343.97 535.5 349.35C517.57 335.86 501.52 310.16 501.27 287.5C501.09 270.43 507.04 254.6 515.54 240.04C522.1 228.8 529.79 218.22 536.6 207.13C539.31 202.72 543.78 196.87 543.5 191.79C516.96 220.98 477.99 251.26 469.28 291.63C466.66 303.77 466.67 316.21 467.95 328.5C469.03 338.8 471.84 349.01 475.93 358.53C480.82 369.93 487.77 381.17 496.08 390.4C508.88 404.61 524.97 415.42 541.17 425.36C557.57 435.42 575.26 445.5 583.84 463.64C598 493.57 582.31 512.12 574.95 539.5C571.51 552.28 574.18 570.93 585.5 579.37C587.24 562.88 588.06 550.67 596.2 535.69C609.04 512.08 625.27 500.26 624.2 470.5C623.28 444.76 602.3 425.83 591.69 403.78C582.8 385.29 579.37 365.61 585.17 345.6C587.55 337.41 591.59 330.16 595.17 322.5C589.65 322.74 583.07 329.76 578.97 333.48C566.88 344.46 557.38 359.07 555.3 375.55C554.52 381.68 555.89 387.7 555.5 393.73C552.21 391.06 549.51 387.84 547.21 384.29C533.82 363.54 544.41 344.44 558.26 327.74C572.96 310.02 595.66 299.29 614.92 287.41C636 274.42 655.71 257.57 667.5 235.46C671.43 244.56 663.83 263.43 659.48 271.98C653.09 284.53 642.77 294.57 633.07 304.57C620.1 317.94 608.04 333.32 603.26 351.68C594.96 383.55 615.58 404.89 630.36 430.15C638.31 443.73 643.55 458.63 643.62 474.5C643.71 494.46 636.1 510.39 624.95 526.38C619.43 534.3 614.4 542.28 610.7 551.24C608.94 555.48 606.87 559.77 607.5 564.28C617.04 555.77 626.23 548.14 637.64 542.14C665.95 527.27 701.51 516.95 712.75 483.31C720.46 460.24 710.58 438.86 706.2 416.45C703.32 401.73 703.69 385.86 709.41 371.86C719.8 346.41 740.19 332.28 753.61 310.12C759.92 299.7 765.4 287.04 762.5 274.7C758.83 281.2 756.19 288.17 751.94 294.38C746.6 302.16 739.26 308.61 731.88 314.4C711.57 330.35 685.46 341.57 676.19 367.66C665.67 397.26 682.53 416.61 684.77 444.5C686.26 463.13 677.34 480.02 663.5 492.02C663.14 486.66 666.36 480.58 667.68 475.28C669.52 467.83 670.57 460.19 669.8 452.5C668.08 435.18 659.1 420.06 655.35 403.27C651.85 387.59 653.61 371.31 660.22 356.7C668.28 338.9 681.87 326.15 697.62 315.04C713.03 304.18 729.77 294.93 739.85 278.33C746.84 266.82 749.38 252.8 749.06 239.5C748.92 233.8 747.07 228.07 747.46 222.5C775.81 238.17 789.57 276.66 776.55 306.08C767.44 326.66 749.08 343.18 751.32 367.46C753.09 386.57 765.43 401.16 773.87 417.64C781.42 432.39 785.8 448.88 785.42 465.5C785.14 477.67 783.16 489.94 778.8 501.34C774.36 512.96 767.29 523.39 762.32 534.78C759.56 541.1 757.54 550.71 765.66 553.79C773.18 556.63 781.75 553.82 788.23 549.71C803.98 539.73 810.88 519.47 810.56 501.54C810.14 478.85 801.24 457.91 799.2 435.5C795.75 397.75 808.31 360.8 836.38 334.9C844.44 327.47 853.72 321.08 863.35 315.84C866.62 314.06 870.29 311.5 873.95 311.5C870.17 318.98 865.63 326.02 862.19 333.69C853.1 354 849.55 376.42 854.31 398.3C859.12 420.46 872.58 438.39 881.77 458.72C888.64 473.92 892.23 490.83 890.93 507.5C889.71 523.11 883.81 538.21 876.38 551.85C872.14 559.63 867.22 567.1 863.78 575.29C859.97 584.37 859.65 593.84 860.71 603.53C861.03 606.52 860.89 610.5 862.28 613.26C863.18 615.07 873.91 623.66 876.5 626.65C878.32 622.89 878.99 618.64 880.22 614.65C882.08 608.59 884.49 602.63 887.57 597.08C898.52 577.38 916.24 564.02 935.44 552.97C943.29 548.45 952.51 542.89 961.5 541.36C959.66 545.18 957.02 548.73 954.99 552.5C946.07 569.04 938.95 585.44 938.43 604.54C937.81 627.44 947.31 647.69 954.6 668.83C960.8 686.8 965.23 704.5 966.72 723.5C970.46 770.93 950.26 826.16 923.4 864.87C880.11 927.26 816.61 964.73 743.55 982.18C726.39 986.27 708.93 990.09 691.5 992.92C685.35 993.92 676.33 995.4 673.19 988.5C674.64 982 681.17 978.45 686.34 974.89C697.6 967.13 709.28 959.94 720.35 951.9C751.35 929.41 784.32 900.26 795.71 862.3C805.69 828.99 796.75 789.89 766.91 769.58C756.49 762.48 744.85 757.97 733.24 753.3C727.33 750.92 721.06 747.43 720.37 740.35C719.52 731.54 727.62 722.57 732.46 715.94C741.66 703.33 751.5 692.06 763.05 681.54C768.6 676.48 779.03 669.86 783.09 664.5C778.39 657.8 772.96 652.29 770.17 644.37C762.94 623.91 774.24 603.14 788.5 588.95C790.87 591.65 792.41 595.07 794.44 598.07C799.68 605.79 807.1 612.68 815.5 616.79C816.5 612.17 817.5 607.55 818.5 602.92C826.5 603.88 834.5 604.83 842.5 605.79C842.26 595.38 840.09 586.06 843.3 575.74C851.74 548.6 871.47 531.91 871.4 500.5C871.33 469.91 851.25 446.29 840.48 419.03C836.4 408.7 834.03 397.55 833.14 386.5C832.68 380.72 833.5 374.72 832.5 369.04C818.12 392.17 815.93 418.04 820.19 444.47C824.09 468.68 832.76 491.54 828.91 516.5C824.54 544.85 802.77 574.5 771.5 574.02C757.07 573.8 741.91 564.02 740.9 548.5C739.9 533.01 749.45 520.59 755.74 507.26C762.6 492.75 766.39 477.62 766.21 461.5C765.89 433.1 747.52 414.9 737.44 390.1C734.9 383.85 733.7 377.48 732.5 370.89C729.18 375.07 727.33 380.36 725.91 385.46C720.81 403.76 727.5 420.08 731.71 437.67C736.19 456.36 736.76 475.87 729.47 493.97C719.87 517.8 698.77 533.91 676.29 544.77C658.66 553.28 638.96 560.23 624.77 574.27C616.02 582.93 609.55 595.46 607.21 607.55C605.93 614.11 606.55 620.74 605.5 627.27C601.27 623.08 597.48 618.46 593.1 614.41C574.59 597.33 559.76 587.54 555.15 560.47C553.27 549.42 554.64 538.33 558.34 527.78C565.41 507.64 578.95 484.83 562.51 465C555.29 456.29 545.26 449.62 535.71 443.78C530.23 440.43 520.69 432.92 514.99 431.5C516.79 442.32 520.27 452.37 520.78 463.5C521.93 488.81 510.83 517.19 491.42 533.94C467.19 554.86 431.46 557.2 421.4 592.81C413.31 621.45 424.49 645.39 442.65 666.83C447.88 673 454.62 677.48 460.04 683.46C468.88 693.21 473.1 705.44 473.64 718.5C474.99 751.05 451.33 772.46 435.07 797.63C425.8 811.98 420.25 828.43 419.63 845.5C417.83 895.13 459.91 937.59 500 960.5C510.59 966.55 521.49 972.06 532.78 976.68C539.27 979.33 546.4 981.37 552.42 985.03C560.83 990.13 559.77 1000.32 549.44 1001.66C540.62 1002.81 531.06 999.87 522.44 998.27C505.78 995.19 489.1 992.43 472.45 989.24C425.17 980.19 379.41 965.34 339.07 938.44C275.28 895.91 231.74 822.11 222.27 746.47C219.33 723.03 220.5 698.78 224.09 675.5C230.04 636.93 245.2 599.62 264.25 565.73C282.09 533.99 304.84 500.07 309.85 463.49C312.17 446.58 311.15 429.19 306.69 412.71C304.26 403.73 299.5 395.41 297.17 386.5C303.54 388.01 310.19 393.21 315.54 396.97C333.8 409.8 345.44 428.06 355.5 447.58C359.61 442.83 362.05 436.39 365.67 431.2C385.49 402.73 397.44 380.86 391.73 344.56C388.89 326.5 380.93 311.49 372.68 295.5C377.36 294.85 382.24 296.99 386.65 298.82C397.35 303.27 407.24 309.89 415.56 317.94C447.2 348.54 463.78 396.98 457.94 440.5C456.94 447.9 455.16 455.31 452.8 462.4C449.43 472.55 445.01 482.52 446.06 493.5C447.49 508.63 466.34 511.81 478.37 508.77C502.59 502.66 503.36 470.23 499.88 450.51C497.4 436.49 492.3 422.81 484.83 410.69C478.51 400.43 470.68 391.09 465.13 380.36C457.23 365.13 450.24 347.57 448.32 330.45C447.44 322.63 447.83 314.35 448.08 306.5C449.3 267.12 475.83 234.45 502.04 207.56C517.43 191.77 535.47 176.32 543.8 155.32C550.25 139.05 550.43 121.21 544.76 104.69C542.75 98.86 537.23 90.26 536.5 84.91ZM638.5 126.3C671.69 146.65 701.69 183.92 709.28 222.43C715.59 254.52 706.57 287.24 676.5 303.91C676.33 299.72 679.13 295.22 680.64 291.21C683.95 282.39 687.33 273.41 689.73 264.3C695.34 243.03 692.13 221.51 682.61 201.87C679.24 194.95 675.27 187.33 669.5 182.11C668.96 186.2 669.34 190.37 668.81 194.48C667.17 207.19 660.37 227.35 648.5 234.06C646.85 226.68 646.72 218.99 644.82 211.56C643.47 206.27 640.66 200.65 640.5 195.23C642.5 198.28 644.5 201.33 646.5 204.38C649.71 199.77 649.77 192.11 649.93 186.5C650.34 171.6 648.36 156.81 643.86 142.58C642.25 137.48 638.59 131.57 638.5 126.3ZM412.5 343.71C411.6 351.22 413.11 358.92 412.73 366.5C412.01 380.67 408.36 394.25 402.68 407.21C399.18 415.17 394.86 423.2 389.89 430.34C382.83 440.47 374.78 450.11 370.29 461.76C365 475.49 365.26 490.01 364.99 504.5C364.87 511.18 362.88 518.54 364.5 524.99C375.65 508.89 387.41 492.58 394.83 474.34C397.82 466.99 399.55 459.16 401.5 451.5C404.33 468.62 405.11 488.83 398.75 505.29C394.18 517.11 386.1 527.51 380.1 538.63C369.36 558.51 361.46 581.63 362.39 604.48C363.38 628.76 374.69 653.35 399.45 661.12C404.42 662.68 410.03 664 415.21 663.5C410.76 653.37 404.91 644.3 402.25 633.36C395.27 604.63 401.53 573.64 423.99 553.48C430.75 547.41 438.58 542.33 446.6 538.1C452.2 535.14 459.44 532.71 464.08 528.5C458.09 527.25 451.97 525.78 446.45 523.05C442.55 521.12 439.03 518.61 436.24 515.26C415.68 490.58 434.51 466.42 438.73 440.42C442.69 415.99 437.74 391.77 428.24 369.26C424.59 360.61 419.71 349.95 412.5 343.71ZM330.5 441.65C328.75 449.23 329.83 457.66 328.8 465.48C326.97 479.43 323.48 493.39 317.83 506.33C307.2 530.67 292.57 553.09 279.83 576.34C272.12 590.41 264.37 605.03 260.2 620.6C253.79 644.5 255.86 670.08 257.17 694.5C257.5 700.52 259.67 707.82 259.39 713.5C248.26 702.55 248.67 684.21 244.5 670.31C227.29 744.39 253.61 823.42 302.41 880.11C312.62 891.96 323.69 902.81 335.94 912.53C340.71 916.31 347.09 922.26 353.03 923.5C348.2 914.68 342.32 906.53 338.34 897.21C328.88 875.08 326.66 852.06 331.5 828.5C323.94 827.02 316.61 827.32 309.25 824.3C304.52 822.35 300.01 819.73 296.26 816.23C293.27 813.45 290.76 810.11 289.15 806.34C287.84 803.27 287.1 799.83 286.96 796.5C286.47 785.14 293.31 775.05 302.7 769.2C308.79 765.41 315.79 763.59 321.31 758.85C327.23 753.76 332.31 745.98 336.61 739.5C328.02 726.99 306.92 712.9 291.5 713.2C288.62 722.94 293.65 734.66 295.34 744.34C296.23 749.4 296.98 755.25 293.5 759.29C280.29 752.08 272.8 731.07 271.51 717C270.7 708.25 273.42 698.21 282.71 695.3C298.1 690.49 318.58 700.79 330.95 709.52C337.54 714.17 343.1 720.05 349.5 724.87C355.49 720.31 362.25 713.12 356.72 705.76C351.19 698.41 338.06 694.14 330.15 689.36C306.67 675.17 294.85 660.12 295.94 631.5C296.97 604.38 315.08 582.84 327.91 560.37C342.58 534.66 349.55 505.95 344.2 476.46C342.09 464.82 338.64 450.68 330.5 441.65ZM346.5 567.73C338.24 577.91 331.57 590.27 325.28 601.76C312.36 625.35 308.84 656.73 331.65 675.9C343.12 685.53 358.72 688.54 370.41 698.06C380.31 706.12 384.73 718.96 393.11 728.35C401.73 738 414.27 733.14 415.77 750.5C406.57 757.1 391.31 753.48 383.66 745.84C379.1 741.29 376.71 735.11 372.5 730.33C368.58 733.89 365.39 738.36 361.65 742.15C356.18 747.69 350.01 752.56 345.04 758.58C340.07 764.6 336.21 771.63 329.84 776.38C323.03 781.45 306.68 784.86 305.87 794.5C304.69 808.73 329.36 810.56 338.2 805.68C342.38 803.36 344.44 798.26 348.72 796.22C352.12 794.6 355.62 795.95 357.22 799.33C361.09 807.49 354.36 818.72 352.22 826.63C348.53 840.33 346.78 854.27 349.31 868.35C358.14 917.44 401.29 948.89 444.27 967.24C459.67 973.81 480.78 981.1 497.5 981.59C492.67 977.58 486.44 974.84 481.13 971.4C471.35 965.06 461.79 958.2 453.05 950.47C414.85 916.68 389.42 865.87 405.27 814.68C411.72 793.87 426.18 777.53 438.54 760.06C448.94 745.37 457.79 729.44 453.61 710.78C450.61 697.43 439.6 688.04 426.46 685.13C419.29 683.55 411.81 684.04 404.56 682.78C392.53 680.68 380.62 675.04 371.12 667.42C349.38 649.98 341.78 622.42 342.95 595.5C343.35 586.35 346.8 576.56 346.5 567.73ZM487.5 581.42C489.77 593.29 491.38 606.91 502.64 613.9C507.05 616.64 512.34 617.97 517.31 619.26C521.94 620.46 526.67 622.02 531.4 621.5C525.76 613.18 522.69 601.24 526.52 591.5C529.8 598.26 532.77 605.04 537.53 610.94C545.3 620.57 556.15 626.97 564.92 635.57C578.51 648.92 590.52 663.96 602.5 678.71C607.67 674.2 611.61 667.81 616.07 662.59C626.49 650.37 637.26 638.47 648.6 627.09C655.78 619.88 666.06 611.17 676.98 614.5C673.24 616.57 671.08 619.68 669.27 623.5C673.74 623.18 678.34 621.27 682.8 620.41C692.17 618.59 701.5 616.96 708.99 610.5C714.29 605.91 716.86 599.83 720.5 594.05C722.04 596.29 722.65 598.65 723.31 601.3C724.84 607.52 724.79 614.89 722.42 620.91C720.81 625.01 717.78 628.31 715.61 632.1C712.7 637.17 710.07 645.12 710.5 650.88C717.51 647.42 724.61 644.7 732.5 644.4C729.66 647.89 725.59 650.58 722.68 654.2C712.19 667.23 703.18 680.89 690.86 692.38C682.24 700.42 673.76 708.59 665.44 716.94C661.39 721 655.93 725.3 653.43 730.5C671.86 754.07 700.67 769.31 713.07 797.45C718.67 810.16 719.99 829.18 709.33 839.83C699.72 849.44 684.45 850.11 672.41 845.14C654.47 837.72 631.14 814.91 618.15 800.32C613.2 794.76 608.46 787.13 602.5 782.82C597.99 787.37 594.2 792.64 589.96 797.45C575.26 814.12 559.12 831.31 539.15 841.64C525.82 848.52 508.05 850.7 496.73 838.77C485.85 827.29 487.84 809.67 493.84 796.36C502.91 776.24 521.24 763.12 536.49 748C541.89 742.65 548.89 737.2 552.59 730.5C539.82 712.31 518.64 699.27 504.92 681.63C499.18 674.26 492.95 664.21 494.5 654.61C496.17 657.68 497.83 660.75 499.5 663.82C500.91 654.37 489.65 642.26 485.25 634.28C476.76 618.89 478.05 596.17 487.5 581.42ZM918.5 588.68C904.18 601.09 896.51 619.83 893.57 638.19C892.67 643.89 891.73 656.28 895.29 661.22C897.56 664.36 905.9 669.2 909.35 672.11C916.05 677.74 921.63 684.87 926.11 692.36C928.26 695.96 932.67 702.18 929.96 706.4C927.79 709.77 922.95 709.04 919.5 708.99C911.32 708.88 903.74 708.74 895.95 711.5C897.75 719.07 902.33 726.23 904.59 733.84C909.13 749.12 908.07 768.49 894.31 778.85C889.47 782.49 884.04 783.44 878.52 785.5C886.02 820.62 879.89 851.61 863.86 883.35C860.01 890.97 855.53 898.21 850.85 905.33C848.43 909 844.88 912.88 843.5 916.94C858.94 909.54 876.15 891.85 887.54 879.06C925.34 836.62 952.69 775.13 946.9 717.5C943.73 685.97 927.84 661.03 921.2 631.45C919.29 622.91 918.67 614.24 918.73 605.5C918.77 599.98 919.93 593.88 918.5 588.68ZM789.5 622.82C783.35 634.05 791.27 647.98 800.5 654.75C813.72 649.95 826.22 645.35 840.5 645.05C845.52 644.95 850.53 645.36 855.5 646.09C858.72 646.56 861.8 647.61 865.01 647.5C862.36 634.77 847.99 622.48 834.5 624.78C832.83 631.12 831.17 637.45 829.5 643.79C820.1 640.54 810.62 636.63 802.15 631.38C797.82 628.7 793.91 625.33 789.5 622.82ZM511.5 637.9C510.99 642.88 516.54 652.68 518.56 657.9C520.56 663.06 522.52 668.32 525.49 673.02C529.92 680.05 536.18 685.66 542.05 691.45C550.11 699.39 558.09 707.41 565.92 715.58C570.4 720.26 575.58 725.09 579.12 730.5C575.43 735.87 570.4 740.67 565.9 745.39C557.94 753.76 549.91 762.07 541.64 770.14C533.59 778 524.91 785.6 518.3 794.77C513.55 801.36 505.11 818.34 511.93 825.59C513.99 827.79 517.8 827.32 520.48 826.88C527.78 825.7 534.42 820.99 540.27 816.77C564.45 799.35 581.51 775.43 602.5 754.69C609.85 758.75 617.37 769.91 623.1 776.38C636.31 791.32 649.62 805.86 665.85 817.61C671.63 821.8 678.47 826.44 685.64 827.7C688.55 828.22 692.46 828.58 694.69 826.21C701.94 818.47 693.65 801.91 688.5 795.01C681.27 785.32 672.32 777.21 663.61 768.9C650.93 756.78 637.68 744.27 626.79 730.5C630.07 724.9 635.46 720.15 639.93 715.43C647.08 707.9 654.26 700.43 661.55 693.05C667.48 687.04 673.98 681.25 678.95 674.39C686.54 663.89 687.17 650.23 691.94 638.5C687.51 637.72 682.88 638.94 678.46 639.86C671.48 641.31 665.1 643.57 659.19 647.66C653.74 651.42 649.27 656.46 644.66 661.16C635.23 670.79 626.3 680.79 617.48 690.97C613.27 695.82 607.74 704.94 602.5 707.97C589.89 694.24 578.35 679.53 565.68 665.81C559.51 659.13 553.15 651.96 545.29 647.23C538.69 643.25 534.31 644.5 527.25 643.4C521.76 642.55 516.6 639.96 511.5 637.9ZM898.56 690.5C897.31 686.28 892.31 682.41 888.73 679.77C879.21 672.75 867.14 667.83 855.53 665.82C846.14 664.2 835.9 664.13 826.55 666.16C803.03 671.27 777.62 691.8 761.92 709.4C754.81 717.37 747.71 726.07 742.61 735.5C748.71 739.64 756.73 741.75 763.4 745.09C776.59 751.68 788.85 760.91 797.92 772.62C805.64 782.58 811.95 794.12 815.28 806.29C818.17 816.84 819.77 827.52 819.3 838.5C817.27 885.71 785.84 923.53 750.88 952.42C738.36 962.77 724.59 971.42 711.9 981.5C717.12 981.27 722.69 978.86 727.67 977.22C738.78 973.53 749.76 969.13 760.09 963.58C795.02 944.83 824.99 913.16 844.11 878.63C852.9 862.76 860.12 844.7 861.9 826.5C862.91 816.21 862.68 805.97 860.58 795.81C858.17 784.17 852.97 773.28 851.11 761.49C848.28 743.47 852.33 724.65 863.87 710.32C867.75 705.5 872.5 701.53 877.77 698.3C884.2 694.37 891.18 691.85 898.56 690.5ZM839.61 683.24C851.97 680.95 857.85 697.72 847.29 702.8C832.1 710.11 824.26 686.09 839.61 683.24ZM879.5 723.14C870.27 732.25 866.56 753.89 873.5 765C877.2 764.85 881.37 764.41 884.16 761.66C892.08 753.86 885.55 730.84 879.5 723.14ZM610.5 825.28C610.35 829.03 608.22 832.88 607.21 836.57C605.21 843.84 604.31 851.94 605.22 859.47C607.71 879.94 625.04 891.45 638.83 904.66C643.47 909.09 647.4 914.12 651.5 919.03C654.6 916.34 656.46 911.97 659.1 908.66C662.7 904.14 667.16 899.74 671.7 896.17C687.58 883.69 711.93 876.08 722.45 858.94C728.25 849.49 729.42 839.77 731.5 829.18C734.2 834.43 735.57 840.62 735.98 846.5C736.36 852.02 735.7 857.39 734.28 862.71C725.52 895.69 693.87 896.8 675.11 919.65C668.68 927.48 664.29 937.43 663.26 947.52C662.15 958.42 663.5 968.71 659.72 979.27C649.58 1007.59 623.75 1024.1 597.68 1036.2C592 1038.84 586.34 1041.81 580.5 1044.02C580.33 1040.38 582.47 1036.81 583.69 1033.26C585.7 1027.43 587.54 1021.48 588.77 1015.43C593.05 994.29 587.57 972.96 574.92 955.64C546.54 916.79 479.37 920.32 467.77 867.59C466.53 861.92 465.77 855.86 466.53 850.08C467.51 842.54 469.27 835.72 472.5 828.8C474.38 832.53 474.95 843.05 476.29 848.31C479.33 860.19 485.12 871 493.69 879.8C512.85 899.5 544.27 905.79 566.86 921.6C586.11 935.08 600.85 955.86 606.73 978.69C608.15 984.18 609.35 989.83 609.77 995.5C610.08 999.52 609.82 1003.52 610.38 1007.5C617.16 1004.31 623.77 998.85 628.98 993.48C633.47 988.86 637.21 983.27 639.87 977.4C641.95 972.82 642.92 968.07 643.52 963.1C644.04 958.8 643.78 954.76 643.17 950.5C639.09 921.77 610.34 910.77 596.06 888.39C582.13 866.57 590.59 839.81 610.5 825.28Z" fill="#FC6003" fill-rule="evenodd" stroke="#FC6003" stroke-width="0.25" stroke-linejoin="round"/>
</svg>